<svg width="50" height="52" viewBox="0 0 50 52" fill="none" xmlns="http://www.w3.org/2000/svg">
<path d="M34.1875 34.497V21.3018C34.1875 21.2655 34.1697 21.2477 34.1341 21.2484C33.4622 21.2535 32.8019 21.2459 32.1532 21.2255C31.956 21.219 27.3404 26.046 26.7629 26.6278C26.7478 26.6431 26.7391 26.6635 26.7387 26.6849C26.7383 26.7062 26.7462 26.7268 26.7608 26.7422L33.0107 33.3027C33.0133 33.3053 33.0151 33.3086 33.0158 33.3122C33.0165 33.3158 33.0161 33.3195 33.0147 33.3229C33.0133 33.3263 33.011 33.3292 33.0079 33.3312C33.0049 33.3332 33.0013 33.3343 32.9977 33.3343L29.0664 33.3452C29.0286 33.3452 28.9963 33.3314 28.9694 33.3038L23.6336 27.6989C23.6276 27.6927 23.6204 27.6877 23.6124 27.6843C23.6045 27.6809 23.5959 27.6792 23.5873 27.6792C23.5786 27.6792 23.5701 27.6809 23.5621 27.6843C23.5541 27.6877 23.547 27.6927 23.541 27.6989L18.4449 32.8713C18.4187 32.8981 18.3864 32.9116 18.3479 32.9116L12.9957 32.905C12.9609 32.905 12.9434 32.888 12.9434 32.8538L12.9293 9.40331C12.9293 9.37643 12.9424 9.36118 12.9685 9.35754C13.3847 9.29435 13.8772 9.33793 14.1823 9.33902C24.6208 9.35646 35.0617 9.34774 45.5053 9.31287C45.5142 9.31273 45.5231 9.31437 45.5314 9.3177C45.5398 9.32103 45.5473 9.32598 45.5537 9.33227C45.5601 9.33856 45.5652 9.34605 45.5687 9.35432C45.5721 9.36259 45.5739 9.37146 45.5739 9.38043V42.2244C45.5739 42.2615 45.5554 42.28 45.5183 42.28L42.9044 42.2767C42.868 42.2767 42.8499 42.259 42.8499 42.2234V12.3354C42.8499 12.2955 42.8299 12.2755 42.79 12.2755L15.698 12.2668C15.6818 12.2668 15.6663 12.2732 15.6548 12.2847C15.6434 12.2961 15.637 12.3116 15.637 12.3278V29.9239C15.637 29.9696 15.6595 29.9925 15.7045 29.9925H17.1515C17.1806 29.9925 17.2053 29.9823 17.2256 29.962L22.6148 24.4551C22.6715 24.3978 22.6718 24.34 22.6159 24.2819L17.0175 18.447C16.9935 18.4223 16.9815 18.3926 16.9815 18.3577L16.9674 14.1268C16.9674 14.0803 16.991 14.057 17.0382 14.057H41.222C41.262 14.057 41.2819 14.0774 41.2819 14.118L41.2939 42.1852C41.2939 42.2303 41.2714 42.2528 41.2264 42.2528L4.35189 42.2615C4.30395 42.2615 4.27998 42.2372 4.27998 42.1885L4.28434 0.0664678C4.28434 0.0228835 4.30576 0.00109067 4.34862 0.00109067L49.9018 0C49.936 0 49.9534 0.0174349 49.9541 0.0523023L49.9944 2.8417C49.9952 2.90635 49.9628 2.93867 49.8975 2.93867L7.03559 2.95719C6.99491 2.95719 6.97458 2.97753 6.97458 3.01821L6.98329 39.2313C6.98329 39.2379 6.98459 39.2444 6.98711 39.2505C6.98963 39.2566 6.99332 39.2621 6.99797 39.2667C7.00263 39.2714 7.00815 39.2751 7.01423 39.2776C7.02031 39.2801 7.02683 39.2814 7.03342 39.2814H38.5459C38.5823 39.2814 38.6004 39.2633 38.6004 39.2269V17.0807C38.6004 17.0444 38.5823 17.0262 38.5459 17.0262H19.8908C19.7738 17.0262 19.7557 17.0683 19.8363 17.1526L25.7627 23.4113C25.7925 23.4425 25.8226 23.4425 25.8531 23.4113C26.3914 22.8556 30.6724 18.2989 30.9459 18.2978C32.9341 18.2905 34.9223 18.2843 36.9104 18.2792C36.9475 18.2792 36.966 18.2974 36.966 18.3337V37.4694C36.966 37.4873 36.9589 37.5045 36.9462 37.5172C36.9336 37.5298 36.9164 37.537 36.8985 37.537L8.66347 37.5402C8.62569 37.5402 8.60681 37.5213 8.60681 37.4836L8.61008 4.71364C8.61008 4.67732 8.62787 4.65916 8.66347 4.65916H49.9029C49.9371 4.65916 49.9567 4.67587 49.9618 4.70928C49.9886 4.87054 50.0013 5.0082 49.9999 5.12224C49.941 8.88575 49.9966 12.6438 49.9846 16.4062C49.9628 22.4633 49.9258 28.5237 49.9726 34.5798C50.0042 38.68 49.9443 42.7703 49.9988 46.8858C49.9995 46.9599 49.9628 46.9969 49.8887 46.9969L0.0751832 46.9926C0.0454006 46.9926 0.0305089 46.978 0.0305089 46.949C0.0152544 34.8761 0.0457636 22.8044 0.0239715 10.7315C0.0239715 10.7047 0.0192493 10.6785 0.00980606 10.6531C0.00326842 10.6335 0 10.615 0 10.5975C0.023245 7.0839 0.0326893 3.57028 0.0283308 0.0566617C0.0283308 0.0196151 0.0468552 0.00109067 0.0839019 0.00109067H2.61615C2.65247 0.00109067 2.67063 0.0192508 2.67063 0.055571V43.9863C2.67063 44.0314 2.69315 44.0539 2.73818 44.0539L47.2029 44.0354C47.2472 44.0354 47.269 44.0136 47.2682 43.97C47.2414 42.1511 47.2366 39.7736 47.2541 36.8374C47.2701 34.1708 47.2719 27.558 47.2595 16.999C47.2595 16.9474 47.2508 16.9111 47.2334 16.89C47.2385 13.8115 47.2385 10.7326 47.2334 7.6534C47.2334 7.61853 47.2156 7.6011 47.18 7.6011H11.3995C11.3588 7.6011 11.3355 7.62107 11.3297 7.66103C11.2774 8.03476 11.3319 8.48804 11.3319 8.7539C11.3341 13.0637 11.3366 17.3738 11.3395 21.6843C11.3395 21.701 11.3355 21.7155 11.3276 21.7279C11.3188 21.7438 11.3145 21.7609 11.3145 21.7791L11.3232 34.4991C11.3232 34.5275 11.3374 34.5416 11.3657 34.5416H34.1428C34.1726 34.5416 34.1875 34.5267 34.1875 34.497Z" fill="white"/>
<path d="M49.9574 48.8406H0.0577385C0.0414906 48.8406 0.0283203 48.8537 0.0283203 48.87V51.7553C0.0283203 51.7715 0.0414906 51.7847 0.0577385 51.7847H49.9574C49.9736 51.7847 49.9868 51.7715 49.9868 51.7553V48.87C49.9868 48.8537 49.9736 48.8406 49.9574 48.8406Z" fill="white"/>
</svg>
