<svg width="117" height="72" viewBox="0 0 117 72" fill="none" xmlns="http://www.w3.org/2000/svg">
<path d="M116.199 0V70.0658H106.565V11.5437L81.9852 60.9853H77.2362L52.6981 11.5437V48.2309C52.6981 53.0738 51.623 57.2174 49.4416 60.6095C47.3019 64.0539 44.3691 66.6632 40.7369 68.4793C37.1047 70.2954 33.055 71.2243 28.6818 71.2243C26.2603 71.2243 23.7449 70.9947 21.0938 70.6189C18.4427 70.2014 15.8752 69.5021 13.3702 68.521C10.8548 67.5399 8.62123 66.1518 6.61726 64.4192C4.57154 62.697 2.98509 60.5052 1.77436 57.9063C0.563628 55.2969 0 52.2284 0 48.5962V0H9.63366V48.043C9.63366 51.7691 10.0512 54.8377 10.9801 57.2174C11.909 59.6389 13.078 61.4967 14.5183 62.8536C15.9587 64.2522 17.493 65.2228 19.1734 65.8804C20.8538 66.5275 22.5237 66.9554 24.2042 67.1329C25.8846 67.3103 27.3667 67.4147 28.6713 67.4147C30.9049 67.4147 33.1385 67.0389 35.3303 66.2979C37.5639 65.5046 39.5679 64.3879 41.384 62.8014C43.1479 61.2671 44.5987 59.2631 45.7155 56.8417C46.8323 54.4202 47.3437 51.5395 47.3437 48.2309V0H57.1652L81.9748 49.9948L106.836 0H116.199Z" fill="#BA6C36"/>
<path d="M29.5169 25.2271C30.4145 29.6455 32.9125 32.0183 37.0109 32.3453C36.2803 32.4914 35.9359 32.5749 35.5914 32.6271C35.1844 32.7002 34.7669 32.7524 34.3494 32.8046C31.3852 33.1594 30.3728 34.1614 29.9449 37.136C29.8196 38.0128 29.7048 38.8791 29.8614 39.641C29.2456 37.7727 29.0994 35.4452 27.8678 34.1718C26.6571 32.9298 24.34 32.7732 23.0249 32.314C28.4523 31.8861 28.9742 31.2494 29.5169 25.2271Z" fill="#BA6C36"/>
</svg>
